<?xml version="1.0" encoding="UTF-8" standalone="no"?>
<!-- Created with Inkscape (http://www.inkscape.org/) -->

<svg
   version="1.1"
   id="svg1"
   width="1024"
   height="1024"
   viewBox="0 0 1024 1024"
   xmlns="http://www.w3.org/2000/svg"
   xmlns:svg="http://www.w3.org/2000/svg">
  <defs
     id="defs1" />
  <g
     id="g1">
    <path
       style="fill:#000000"
       d="m 498.89246,752.6458 c -10.12055,-4.16321 -16.31027,-9.92041 -20.48299,-19.05168 -5.76193,-12.60897 -3.82525,-27.57406 5.0169,-38.76668 3.5293,-4.46748 6.09529,-6.47023 12.07854,-9.42732 6.76288,-3.34239 8.44272,-3.75774 15.29615,-3.782 12.88648,-0.0456 23.26073,5.07159 30.68871,15.13751 C 545.52646,702.2259 549,712.28284 549,718.5 c 0,10.92517 -7.07444,23.98884 -16.37638,30.24068 -9.8176,6.59839 -23.36986,8.16737 -33.73116,3.90512 z m 27.95782,-6.64668 c 16.71692,-8.91003 21.83018,-29.9756 11.07159,-45.61268 -6.31702,-9.18147 -19.38302,-15.41747 -29.42079,-14.04164 -10.85624,1.48801 -21.10827,9.1304 -25.69612,19.1552 -3.23163,7.06136 -3.17902,19.09553 0.11147,25.5 4.81036,9.36267 9.98491,13.95019 19.92775,17.66706 6.34817,2.3731 16.70838,1.2217 24.0061,-2.66794 z m -24.24039,-12.30621 c -8.27264,-5.13079 -11.08355,-15.8095 -6.34344,-24.09889 3.47432,-6.07582 6.75691,-7.97535 14.51552,-8.39965 5.77171,-0.31564 7.2077,-0.0349 10.19423,1.99291 10.84121,7.36108 11.58463,21.70675 1.52259,29.38144 -5.33465,4.06893 -14.32188,4.57692 -19.8889,1.12419 z m 14.96352,-4.15914 c 4.94177,-2.0648 7.96206,-8.83147 6.44937,-14.44917 -1.25248,-4.65135 -5.69259,-8.74443 -10.455,-9.63786 -7.09234,-1.33053 -14.57266,5.12354 -14.5493,12.55326 0.0148,4.69378 1.8177,7.97299 5.89397,10.71998 3.91568,2.63878 7.70953,2.88263 12.66096,0.81379 z M 392.5,744.59749 c -1.65,-0.72833 -3.9,-2.33296 -5,-3.56585 -1.87362,-2.09997 -2,-3.65549 -2,-24.6174 v -22.37578 l 3.26724,-3.26923 c 3.18824,-3.19017 3.50733,-3.2775 13.19512,-3.61122 l 9.92788,-0.342 0.30488,-3.658 c 0.42453,-5.09356 3.1919,-5.02314 3.61525,0.092 l 0.31036,3.75 h 8.53851 c 5.83123,0 9.63085,0.51835 11.98368,1.63484 5.8967,2.79817 6.35708,4.81618 6.35708,27.86516 0,23.16187 -0.56368,25.5841 -6.5343,28.07878 -4.65668,1.94569 -39.56654,1.96054 -43.9657,0.0187 z m 43.59001,-6.45827 C 437.82213,735.99829 438,733.9853 438,716.52407 c 0,-17.96491 -0.1388,-19.43081 -2.07258,-21.88921 L 433.85484,692 H 414 394.14516 l -2.07258,2.63486 C 390.14289,697.08807 390,698.56465 390,716.05307 c 0,10.33085 0.29235,19.5452 0.64966,20.47634 1.42901,3.72395 5.97765,4.48641 25.19035,4.22251 17.92454,-0.24621 18.38327,-0.3054 20.25,-2.6127 z m 151.2247,6.39712 C 581.57487,742.03992 581,739.48757 581,716.5 c 0,-23.16187 0.56368,-25.5841 6.5343,-28.07878 C 589.51601,687.59321 594.28832,687 598.96788,687 H 607 v -3.53138 c 0,-2.26039 0.5554,-3.74452 1.54313,-4.12354 2.18278,-0.83761 2.86611,0.20124 2.75317,4.18557 L 611.198,687 l 8.65103,0.002 c 10.35022,0.002 14.79798,1.79085 17.39947,6.99845 1.48043,2.96351 1.74844,6.41238 1.74844,22.5 0,29.31859 -0.19893,29.51726 -29.49689,29.4593 -13.92071,-0.0275 -19.85153,-0.40794 -22.18529,-1.42296 z m 42.86541,-5.03208 C 633.13117,738.33691 634,733.10459 634,716.5 634,699.68776 633.14007,694.68052 629.96056,692.97889 628.95093,692.43856 619.5898,692 609.06574,692 c -17.73241,0 -19.20561,0.13987 -21.06574,2 -1.86267,1.86267 -2,3.33333 -2,21.41821 0,10.68002 0.29235,20.18006 0.64966,21.1112 1.46578,3.81977 5.92931,4.56999 24.35034,4.0928 9.625,-0.24934 18.25606,-0.75241 19.18012,-1.11795 z M 344.33975,702.61694 c -6.0867,-1.97943 -9.89638,-5.06961 -12.25392,-9.93964 C 330.04357,688.45856 330,687.13479 330,629.3096 c 0,-68.13139 0.37393,-72.23863 8.95035,-98.3096 9.58803,-29.14611 23.75709,-51.72048 46.19401,-73.59699 45.91055,-44.76385 109.84093,-61.54551 173.21254,-45.46812 59.36702,15.06143 108.71742,61.69816 127.05137,120.06511 7.99688,25.4584 7.88106,24.15348 8.31447,93.68169 0.37757,60.57178 0.33592,62.283 -1.60865,66.09468 -6.5262,12.7924 -23.17703,15.66404 -33.9591,5.85666 -5.81033,-5.28508 -5.6031,-3.06228 -6.25873,-67.13303 -0.56802,-55.50847 -0.73136,-59.57397 -2.76012,-68.699 C 635.27033,499.43512 586.04683,455.8002 523.01803,450.00166 483.12389,446.33147 442.3507,461.5105 412.99493,490.96102 397.02758,506.9799 386.18216,524.50943 379.5613,545 c -6.97856,21.59762 -6.79747,19.53012 -7.45949,85.16582 l -0.60181,59.66582 -3.0444,4.33418 c -5.45147,7.76101 -15.45654,11.26717 -24.11585,8.45112 z m 13.34643,-9.56717 c 1.7524,-1.06851 3.6727,-2.85183 4.26734,-3.96292 0.7182,-1.34197 1.25382,-20.41192 1.59544,-56.80351 0.53384,-56.86677 0.99358,-64.28143 4.95368,-79.8926 10.53641,-41.53576 38.4108,-75.77619 77.76479,-95.52494 20.3443,-10.20925 41.32417,-15.05522 65.23257,-15.06754 17.78452,-0.009 30.14118,2.04439 47.5,7.89402 15.2998,5.15578 24.28372,9.41417 34.72503,16.4597 22.08159,14.9001 38.32036,33.13257 49.7411,55.84802 6.74356,13.41272 10.05978,22.64384 13.29202,37 2.58114,11.46428 2.59097,11.6824 3.16552,70.232 l 0.57633,58.73201 3.09338,3.09214 c 5.75598,5.75368 15.40234,4.72038 18.88969,-2.02342 2.23139,-4.31502 2.23596,-111.65977 0.005,-126.53273 C 674.81675,511.3466 643.8752,465.59057 599.15941,439.27393 564.13579,418.66143 519.66591,410.89671 480.5,418.55525 411.49882,432.0478 358.79845,483.327 343.35693,552 l -2.8107,12.5 -0.32262,61.80049 -0.32263,61.80049 3.44951,3.44951 c 4.08866,4.08866 9.21052,4.62432 14.33569,1.49928 z M 561,452 c 0,-0.55 -0.47656,-1 -1.05902,-1 -0.58246,0 -0.7809,0.45 -0.44098,1 0.33992,0.55 0.81648,1 1.05902,1 C 560.80156,453 561,452.55 561,452 Z M 412,665.10699 c 0,-3.27523 0.46362,-5.07092 1.40223,-5.4311 2.11874,-0.81304 2.59777,0.19946 2.59777,5.49078 0,4.16666 -0.27586,4.83333 -2,4.83333 -1.7275,0 -2,-0.66667 -2,-4.89301 z m 195.31924,3.28254 c -0.79575,-2.07369 0.87205,-8.55651 2.18076,-8.47673 0.55,0.0335 1.13602,2.31686 1.30226,5.07408 0.24325,4.03436 -0.007,5.01312 -1.28139,5.01312 -0.871,0 -1.86174,-0.72471 -2.20163,-1.61047 z M 412.6875,650.35417 c -1.01052,-1.01052 -0.80829,-7.61466 0.28617,-9.34581 1.59697,-2.52596 3.18616,0.28715 2.84047,5.02806 -0.29654,4.06683 -1.59057,5.85382 -3.12664,4.31775 z M 608.19774,645.75 c 0.3806,-6.61072 2.20164,-6.4451 2.60452,0.23688 0.2448,4.06016 -0.003,5.01312 -1.30226,5.01312 -1.30733,0 -1.54853,-0.97242 -1.30226,-5.25 z M 420.67589,640.59777 C 419.86735,638.49074 420.87311,638 426,638 c 5.12689,0 6.13265,0.49074 5.32411,2.59777 C 430.9662,641.53047 429.18345,642 426,642 c -3.18345,0 -4.9662,-0.46953 -5.32411,-1.40223 z m 19.99078,0.73556 C 438.63411,639.30077 440.26008,638 444.83333,638 c 5.39998,0 6.68052,0.67593 5.03555,2.65799 -1.13964,1.37318 -8.00084,1.87672 -9.20221,0.67534 z m 19.46445,-0.67534 C 458.53487,638.73462 459.74236,638 464.5,638 c 4.63433,0 5.61775,0.52957 4.82411,2.59777 -0.69743,1.81747 -7.69655,1.86332 -9.19299,0.0602 z m 18.40046,0.3931 C 477.2796,639.02535 479.16179,638 484.13234,638 c 4.23546,0 4.96269,0.27182 4.68199,1.75 -0.24923,1.31244 -1.49509,1.82528 -4.98273,2.05109 -2.55773,0.1656 -4.94274,-0.1719 -5.30002,-0.75 z m 19,0 C 496.2796,639.02535 498.16179,638 503.13234,638 c 4.23546,0 4.96269,0.27182 4.68199,1.75 -0.24923,1.31244 -1.49509,1.82528 -4.98273,2.05109 -2.55773,0.1656 -4.94274,-0.1719 -5.30002,-0.75 z M 516,640 c 0,-1.89281 0.4881,-2.07826 4.75,-1.80479 3.42009,0.21945 4.75,0.72476 4.75,1.80479 0,1.08003 -1.32991,1.58534 -4.75,1.80479 -4.2619,0.27347 -4.75,0.088 -4.75,-1.80479 z m 18.47773,0.96396 c -1.21642,-1.9682 1.08775,-3.10389 5.63641,-2.7781 3.09226,0.22149 4.38586,0.75656 4.38586,1.81414 0,1.86278 -8.93561,2.72222 -10.02227,0.96396 z m 19,0 c -1.21642,-1.9682 1.08775,-3.10389 5.63641,-2.7781 3.09226,0.22149 4.38586,0.75656 4.38586,1.81414 0,1.86278 -8.93561,2.72222 -10.02227,0.96396 z m 19,0 c -1.21642,-1.9682 1.08775,-3.10389 5.63641,-2.7781 3.09226,0.22149 4.38586,0.75656 4.38586,1.81414 0,1.86278 -8.93561,2.72222 -10.02227,0.96396 z m 20.25124,-0.0558 C 589.87905,639.24898 591.73872,638 597.05902,638 c 3.55665,0 4.94098,0.39028 4.94098,1.39301 0,2.54086 -5.86323,3.49906 -9.27103,1.51512 z m -82.53376,-7.57996 c 0.30554,-4.68328 2.25824,-6.91604 3.41414,-3.9038 1.00451,2.61769 -0.53052,8.57563 -2.20945,8.57563 -1.17407,0 -1.44176,-1.03811 -1.20469,-4.67183 z M 510,614.07332 C 510,609.62157 510.25175,609 512.05479,609 c 1.82698,0 2.021,0.52564 1.75,4.74101 -0.22966,3.5723 -0.73618,4.82292 -2.05479,5.07332 -1.48037,0.28112 -1.75,-0.44934 -1.75,-4.74101 z m -3.58389,-14.56061 c -8.79765,-2.778 -15.43247,-8.30956 -18.3156,-15.27005 L 486.75736,581 H 473.07113 459.3849 l -1.7956,4.06982 c -2.07662,4.70675 -7.22144,10.17147 -11.80996,12.54429 -4.13061,2.13602 -14.15778,2.9125 -19.37522,1.50037 -5.84342,-1.58155 -11.82093,-6.2655 -15.08726,-11.82232 C 408.90407,583.18742 408.5,581.42415 408.5,575 c 0,-11.1077 4.64638,-18.87439 14.0966,-23.56326 5.25865,-2.60917 17.40091,-2.68489 22.51098,-0.14038 4.72727,2.35389 9.57833,7.16765 11.99297,11.90073 L 459.04065,567 h 13.93276 13.93276 l 1.73365,-3.6534 c 3.64201,-7.67498 11.0408,-13.0477 19.31801,-14.02801 11.63551,-1.37805 20.94757,3.00028 26.20891,12.32286 L 537.19092,567 H 551 564.80908 l 2.98345,-5.28637 c 4.85656,-8.60536 12.4052,-12.73472 23.20087,-12.69167 21.25554,0.0848 32.73022,25.64985 18.67808,41.61392 -12.73056,14.46268 -35.71569,11.53526 -43.23446,-5.50641 L 564.6151,581 h -13.68623 -13.68623 l -1.21446,2.93196 c -3.2938,7.95194 -9.59003,13.19793 -18.68257,15.56624 -3.1712,0.82599 -6.00876,1.45731 -6.30571,1.40293 -0.29694,-0.0544 -2.37765,-0.67917 -4.62379,-1.38842 z M 421.5,350.64245 C 413.58788,346.98322 410.6218,337.77332 415.17408,331 c 3.27399,-4.87137 8.73783,-7.39026 14.24058,-6.56507 5.86713,0.87983 8.46656,2.85199 6.9284,5.2565 -1.25938,1.96869 -1.37601,1.97225 -5.96938,0.18196 -9.04985,-3.52722 -16.25634,9.14075 -8.61794,15.14911 C 426.76478,348.96262 433,346.98979 433,341.46482 433,338.43568 433.31436,338 435.5,338 c 2.35453,0 2.5,0.3107 2.5,5.33948 0,4.79405 -0.26839,5.46178 -2.62735,6.53659 -4.24425,1.93381 -10.59034,2.28439 -13.87265,0.76638 z M 479,340.86133 V 330 h -4.5 c -4.13333,0 -4.5,-0.2037 -4.5,-2.5 V 325 h 11.56955 c 11.40199,0 11.56492,0.0324 11.25,2.23386 -0.28187,1.97049 -0.82063,2.19728 -4.56955,1.92353 L 484,328.84706 v 10.95989 c 0,10.89645 -0.0145,10.96266 -2.5,11.4378 l -2.5,0.47791 z M 498,338.5 V 325 h 10 10 v 2.63793 2.63793 l -7.5,-0.67963 -7.5,-0.67963 V 332.4583 336 h 6.5 c 5.83333,0 6.5,0.20513 6.5,2 0,1.79487 -0.66667,2 -6.5,2 H 503 v 3.5 3.5 h 7.5 c 7.33333,0 7.5,0.0556 7.5,2.5 v 2.5 h -10 -10 z m 33.498,12.25 c -6.01666,-17.12276 -8.48245,-24.4034 -8.48942,-25.06642 -0.005,-0.44903 1.21135,-0.67403 2.70238,-0.5 2.45302,0.28631 2.95252,1.096 5.25,8.51015 1.39647,4.50655 2.80569,8.4482 3.1316,8.75923 0.32591,0.31102 1.80926,-3.48866 3.29633,-8.44373 2.60281,-8.67284 2.81285,-9.00923 5.62529,-9.00923 2.80794,0 3.02267,0.34022 5.52262,8.75 1.4306,4.8125 2.72447,9.2 2.87527,9.75 0.15079,0.55 1.59367,-3.275 3.20638,-8.5 2.74497,-8.89337 3.11498,-9.52105 5.79445,-9.8297 2.05626,-0.23686 2.71992,0.0447 2.35681,1 -0.27798,0.73134 -2.21654,6.62786 -4.3079,13.1034 -3.25805,10.08799 -4.14651,11.86005 -6.20536,12.37678 -3.19012,0.80067 -3.6349,0.16914 -6.29537,-8.93846 -1.25124,-4.28339 -2.60234,-7.9903 -3.00244,-8.23758 -0.40011,-0.24728 -1.26141,1.68231 -1.91402,4.28798 -2.07237,8.2744 -4.70431,13.23758 -7.01977,13.23758 -1.14819,0 -2.28527,-0.5625 -2.52685,-1.25 z m -86.87168,-5.5 c 1.43061,-3.1625 3.96504,-9.03616 5.63208,-13.05257 2.90537,-6.99995 3.15796,-7.29003 6.09531,-7 2.89031,0.28539 3.36116,0.98407 8.29066,12.30257 2.87447,6.6 5.25541,12.3375 5.29097,12.75 0.0356,0.4125 -1.06999,0.75 -2.45678,0.75 -1.71911,0 -2.88389,-0.7955 -3.66051,-2.5 -1.0508,-2.30624 -1.66076,-2.5 -7.87016,-2.5 -6.34582,0 -6.76699,0.14309 -7.35853,2.5 -0.493,1.96426 -1.26356,2.5 -3.5958,2.5 h -2.96834 z M 460,340.52024 c 0,-0.26387 -0.73562,-2.31826 -1.63471,-4.5653 -1.79119,-4.47664 -2.41943,-4.30432 -4.7215,1.29506 l -1.54174,3.75 h 3.94898 C 458.22296,341 460,340.78411 460,340.52024 Z M 568.39779,343.25 c 8.57306,-20.00082 7.59912,-18.38481 10.88004,-18.05249 2.79473,0.28308 3.33084,1.09368 8.35427,12.63189 2.95235,6.78116 5.3679,12.51866 5.3679,12.75 0,0.23133 -1.30122,0.4206 -2.89159,0.4206 -2.25038,0 -3.03073,-0.55438 -3.51905,-2.5 -0.59315,-2.36329 -1.00328,-2.5 -7.5,-2.5 -6.49672,0 -6.90686,0.13671 -7.5,2.5 -0.49149,1.95822 -1.26525,2.5 -3.57048,2.5 h -2.94302 z m 14.10692,-4 c -0.3901,-0.9625 -1.15727,-2.9875 -1.70482,-4.5 -1.33015,-3.6743 -2.12106,-3.46855 -3.84401,1 -0.79525,2.0625 -1.59815,4.0875 -1.78423,4.5 -0.18607,0.4125 1.54733,0.75 3.85201,0.75 3.59431,0 4.08943,-0.24891 3.48105,-1.75 z M 603,346.73413 c 0,-3.18748 -1.03397,-6.03142 -4.09013,-11.25 C 592.31931,324.23039 592.55265,325 595.73118,325 c 2.33041,0 3.3548,0.92496 6.09125,5.5 1.80933,3.025 3.46424,5.5 3.67757,5.5 0.21333,0 1.86824,-2.475 3.67757,-5.5 2.77111,-4.63299 3.74391,-5.5 6.17107,-5.5 2.74561,0 2.81392,0.10602 1.44978,2.25 C 609.43205,338.82751 608,341.94128 608,346.38081 608,350.64128 607.80585,351 605.5,351 c -2.27597,0 -2.5,-0.38228 -2.5,-4.26587 z M 422.68332,304.2891 c -0.26567,-0.43401 3.87519,-10.6891 9.20191,-22.7891 5.32672,-12.1 12.33062,-28.1875 15.56422,-35.75 l 5.87927,-13.75 8.58564,0.0253 8.58564,0.0253 8.979,20.72474 c 4.93845,11.3986 11.98747,27.47473 15.66449,35.72473 3.67702,8.25 6.34463,15.35684 5.92802,15.79298 -0.41661,0.43614 -4.52117,0.66114 -9.12126,0.5 l -8.36378,-0.29298 -2.65737,-7 -2.65736,-7 -16.38587,-0.246 -16.38587,-0.246 -3.00151,7.246 -3.0015,7.246 -8.16531,0.2891 c -4.49093,0.159 -8.38268,-0.066 -8.64836,-0.5 z M 471,274.43673 c 0,-0.92395 -8.26611,-20.86941 -9.00601,-21.73077 C 461.40919,252.02515 453,272.17292 453,274.25487 c 0,0.40982 4.05,0.74513 9,0.74513 4.95,0 9,-0.25347 9,-0.56327 z m 39.66667,29.8966 C 510.3,303.96667 510,287.54167 510,267.83333 V 232 h 17.95078 c 9.87293,0 20.17865,0.47779 22.90161,1.06176 7.09948,1.52257 13.46434,5.91877 16.80998,11.61064 2.51962,4.28658 2.83629,5.78018 2.82563,13.3276 -0.0176,12.47873 -3.63103,18.45808 -14.00046,23.16744 -4.08878,1.85696 -7.19501,2.33479 -17.23754,2.65168 L 527,284.20565 V 294.60283 305 h -7.83333 c -4.30834,0 -8.13334,-0.3 -8.5,-0.66667 z M 548.325,267.95872 c 7.42053,-3.54108 7.39622,-16.48656 -0.0373,-19.87351 C 546.9777,247.48835 541.87707,247 536.95295,247 H 528 v 11.62232 11.62232 l 8.75,-0.46892 c 4.8125,-0.2579 10.02125,-1.07555 11.575,-1.817 z m 35.34167,36.37461 C 583.3,303.96667 583,287.54167 583,267.83333 V 232 h 8.5 8.5 v 36.5 36.5 h -7.83333 c -4.30834,0 -8.13334,-0.3 -8.5,-0.66667 z"
       id="path1" />
  </g>
</svg>
