<?xml version="1.0" encoding="UTF-8" standalone="no"?>
<!-- Created with Inkscape (http://www.inkscape.org/) -->

<svg
   version="1.1"
   id="svg1"
   width="1024"
   height="1024"
   viewBox="0 0 1024 1024"
   xmlns="http://www.w3.org/2000/svg"
   xmlns:svg="http://www.w3.org/2000/svg">
  <defs
     id="defs1" />
  <g
     id="g1">
    <path
       style="fill:#000000"
       d="m 511.65499,853.17126 c -2.15777,-2.3843 -2.11201,-6.44901 0.095,-8.43994 l 1.75,-1.57865 11.82881,-0.32633 11.82881,-0.32634 1.42119,1.94113 c 1.61646,2.20784 1.81957,5.38085 0.47996,7.49802 -1.01378,1.60222 -9.02307,2.84685 -19.15378,2.97647 l -6.595,0.0844 z m -50.12397,-2.23732 C 450.3812,849.09165 448,847.85727 448,843.91965 c 0,-0.93394 0.82719,-2.71962 1.8382,-3.96816 l 1.8382,-2.27009 11.90313,1.59822 11.90314,1.59822 1.75866,2.17187 c 2.07083,2.55735 2.24115,4.95425 0.50867,7.15819 -1.99448,2.53722 -4.56182,2.65215 -16.21898,0.72604 z m 111.44651,-3.75105 c -2.52993,-2.04861 -2.9775,-6.62354 -0.85253,-8.71439 1.37378,-1.35172 19.61061,-5.74105 23.35568,-5.62135 3.90398,0.12478 6.24924,7.47225 3.19435,10.00759 -1.09717,0.91057 -8.41372,2.85424 -21.3225,5.6644 -1.19965,0.26116 -3.13061,-0.32861 -4.375,-1.33625 z M 401.02313,836.18323 390.54626,832.5 l -1.46364,-2.63477 -1.46364,-2.63477 1.71356,-2.61523 C 390.38381,823.0108 391.96347,822 393.41959,822 c 3.73418,0 21.93256,6.7611 23.32538,8.6659 1.92288,2.6297 1.49729,6.05101 -0.96748,7.7774 -2.85497,1.99969 -2.46966,2.05872 -14.75436,-2.26007 z m 229.63186,-7.01197 c -2.1697,-2.39748 -2.10087,-5.45777 0.16895,-7.51192 C 632.52132,820.12322 651.30983,812 653.16538,812 654.8862,812 658,816.08658 658,818.34501 c 0,3.32256 -2.2688,4.97473 -12.44433,9.06214 -10.13913,4.07279 -12.55275,4.35854 -14.90068,1.76411 z m -284.24113,-17.2617 c -10.18903,-5.37396 -13.14682,-7.49284 -13.93765,-9.98451 -0.96322,-3.03486 2.01271,-6.92519 5.29684,-6.92437 3.48053,8.7e-4 19.80799,9.43027 21.92589,12.66259 l 1.60609,2.45121 -2.00849,2.69276 c -1.10468,1.48102 -2.67457,2.82406 -3.48866,2.98453 -0.81409,0.16047 -5.0414,-1.58652 -9.39402,-3.88221 z m 339.75245,-9.50562 c -1.70776,-1.19617 -2.20198,-2.3863 -1.9725,-4.75 L 684.5,794.5 l 10.33581,-6.87306 10.3358,-6.87305 2.33796,1.25123 c 2.77209,1.48358 3.9538,5.26054 2.49734,7.98196 C 708.91101,792.03479 691.44081,804 689.54688,804 c -0.60603,0 -2.12728,-0.71823 -3.38057,-1.59606 z m -393.6298,-27.54539 c -8.91336,-7.42809 -10.59951,-10.2301 -8.68486,-14.43229 1.95793,-4.29721 5.5149,-3.17504 14.84805,4.68434 4.64418,3.91083 8.92547,8.1674 9.51398,9.45904 l 1.07002,2.34843 -1.6649,2.54097 c -2.72425,4.15772 -5.64009,3.26831 -15.08229,-4.60049 z M 734,765 c -3.48803,-3.48803 -2.53619,-6.12444 4.75,-13.15665 3.7125,-3.58308 7.9875,-7.3154 9.5,-8.29404 l 2.75,-1.77933 2.5,1.63806 c 5.14873,3.37358 1.67344,9.91949 -10.79976,20.34196 -4.52291,3.77929 -5.96391,3.98633 -8.70024,1.25 z M 375.5,746.27639 c -1.1,-0.27038 -2.5951,-0.97534 -3.32245,-1.56657 l -1.32246,-1.07497 0.67501,-11.06743 c 0.47407,-7.77284 1.10253,-11.40635 2.11117,-12.20597 1.0041,-0.79602 10.908,-1.1437 32.92033,-1.15568 l 31.48418,-0.0171 1.47711,1.47711 1.47711,1.47711 v 11.39338 11.39339 l -1.93426,1.03519 c -1.94036,1.03845 -59.46156,1.32039 -63.56574,0.31157 z m 103.063,-0.80355 -2.063,-1.02716 -0.25315,-9.97284 c -0.16519,-6.50779 0.18226,-10.81123 1,-12.38583 l 1.25315,-2.41299 31.268,-0.30542 c 18.00481,-0.17586 32.32081,0.0949 33.75,0.63824 L 546,720.9505 v 12.05613 c 0,8.80505 -0.34147,12.18717 -1.26627,12.54205 -2.65064,1.01715 -64.11701,0.9467 -66.17073,-0.0758 z M 601,746.02085 581.5,745.5 l -0.28085,-11.64772 -0.28085,-11.64772 1.586,-1.586 1.586,-1.586 31.83416,0.26941 31.83417,0.26942 1.61068,1.33675 1.61069,1.33675 v 11.40231 11.4023 l -2.44529,0.9297 c -2.50085,0.95082 -13.16706,0.96017 -47.55471,0.0417 z M 250.46386,732.78762 c -7.02643,-7.58938 -9.45523,-11.44423 -9.46012,-15.01457 -0.004,-3.1153 3.7465,-6.18986 6.33804,-5.19539 C 249.82632,713.53107 264,731.02481 264,733.13793 264,735.55105 260.53328,739 258.10771,739 c -1.04075,0 -4.48049,-2.79557 -7.64385,-6.21238 z m 523.19113,-13.61636 c -2.43999,-2.69616 -2.11051,-4.0136 2.85497,-11.41538 4.64899,-6.93002 8.13852,-9.0897 11.39482,-7.05229 2.28222,1.42795 2.52095,6.69651 0.45273,9.99118 C 783.70929,718.09937 780.81392,721 778.07096,721 c -1.51854,0 -3.50573,-0.82293 -4.41597,-1.82874 z M 373,714.01694 l -1.5,-0.95244 0.0371,-10.78225 c 0.0204,-5.93024 0.34379,-11.56975 0.71861,-12.53225 L 372.9372,688 h 32.83139 c 24.20218,0 33.14678,0.3154 34.03138,1.2 0.78919,0.78919 1.2,5 1.2,12.3 0,7.3 -0.41081,11.51081 -1.2,12.3 -1.49579,1.49579 -64.46387,1.70029 -66.8,0.21694 z M 477.57143,713.42857 476,711.85714 v -9.36347 c 0,-5.14991 0.43886,-10.51777 0.97525,-11.92857 L 477.9505,688 h 32.82475 c 24.19703,0 33.14016,0.31541 34.02475,1.2 0.78919,0.78919 1.2,5 1.2,12.3 0,7.3 -0.41081,11.51081 -1.2,12.3 -0.88369,0.88369 -9.69524,1.2 -33.42857,1.2 H 479.14286 Z M 582.2,713.8 c -0.78919,-0.78919 -1.2,-5 -1.2,-12.3 0,-7.3 0.41081,-11.51081 1.2,-12.3 0.8845,-0.8845 9.8144,-1.2 33.96482,-1.2 h 32.76481 l 1.03519,1.93426 C 650.53417,690.9981 651,696.20268 651,701.5 c 0,5.29732 -0.46583,10.5019 -1.03518,11.56574 L 648.92963,715 H 616.16482 C 592.0144,715 583.0845,714.6845 582.2,713.8 Z m 209.55,-18.8801 c -3.1104,-1.81164 -2.01549,-6.80005 3.60405,-16.4199 l 5.25744,-9 h 3.43078 3.43078 l 1.29756,2.70727 1.29757,2.70728 -3.64317,7.29272 c -6.47959,12.97055 -9.59645,15.67062 -14.67501,12.71263 z M 218.1661,684.1661 c -1.00864,-1.00864 -4.02777,-6.13559 -6.70917,-11.39321 l -4.87527,-9.55932 1.20052,-2.63485 c 1.42495,-3.12742 3.32069,-4.0207 6.72143,-3.16717 l 2.49914,0.62724 5.49862,10.96395 C 225.52562,675.03291 228,680.42418 228,680.98334 228,682.73333 224.09301,686 222,686 c -1.1,0 -2.82525,-0.82525 -3.8339,-1.8339 z M 398,683.02592 372.5,682.5 372.21733,670.64183 c -0.18803,-7.8878 0.10409,-12.32419 0.87244,-13.25 L 374.24489,656 h 31.80613 31.80612 l 1.57143,1.57143 1.57143,1.57143 v 11.39338 11.39339 l -1.93426,1.03519 c -1.06384,0.56935 -5.00134,0.93434 -8.75,0.8111 -3.74866,-0.12324 -18.29074,-0.46074 -32.31574,-0.75 z m 79.04228,-1.94693 c -1.704,-3.18394 -1.32018,-20.23722 0.51442,-22.85648 L 479.11341,656 h 31.87187 31.87186 l 1.60228,1.60228 1.60228,1.60228 -0.28085,11.64772 L 545.5,682.5 l -33.70772,0.26325 -33.70773,0.26325 z M 582.2,681.8 c -0.7842,-0.7842 -1.2,-4.91746 -1.2,-11.92857 v -10.72857 l 1.57143,-1.57143 L 584.14286,656 h 31.77358 31.77358 l 1.65499,1.82874 1.65499,1.82874 v 10.47126 c 0,6.81098 -0.41947,10.89073 -1.2,11.67126 -0.88425,0.88425 -9.77778,1.2 -33.8,1.2 -24.02222,0 -32.91575,-0.31575 -33.8,-1.2 z M 818.65499,638.17126 C 817.74474,637.16545 817,635.79676 817,635.12972 c 0,-1.92492 6.94477,-21.35825 8.15287,-22.81392 1.8635,-2.24538 6.61802,-1.5951 8.41751,1.15127 l 1.61649,2.46707 -3.20804,9.78293 c -1.76442,5.38061 -3.84184,10.79543 -4.61648,12.03293 -1.74341,2.78509 -6.36574,3.00872 -8.70736,0.42126 z M 416.08049,630.25 c -2.11313,-2.0625 -8.84571,-8.99998 -14.96128,-15.41662 L 390,603.16677 l 0.0318,-2.83339 c 0.0396,-3.52736 1.81839,-5.94573 5.36517,-7.29421 3.59519,-1.36689 5.41663,-0.34326 13.85303,7.78528 l 6.75,6.50367 v -18.48974 -18.48975 l 2.31445,-2.17432 c 3.92074,-3.68334 9.8094,-2.76929 12.22254,1.89721 L 432,572.90068 v 17.27284 17.27284 l 6.75,-6.61086 c 8.01921,-7.8539 10.24785,-9.16702 13.47562,-7.93982 3.13343,1.19133 4.62894,3.12713 5.40199,6.99235 l 0.63948,3.1974 -15.34163,15.45729 L 427.58384,634 h -3.83064 -3.83065 z m 165.22656,-10.59484 c -8.80128,-8.90015 -14.46298,-15.42826 -14.90377,-17.18448 -0.89008,-3.54639 1.18352,-7.49673 4.86394,-9.26609 l 2.69457,-1.29541 2.2691,1.15773 c 1.24801,0.63675 5.30661,4.13262 9.01911,7.76859 l 6.75,6.61086 v -18.6506 -18.6506 l 2.63486,-2.07258 c 3.46464,-2.72529 6.61752,-2.61919 10.05938,0.3385 l 2.80576,2.41109 0.5,18.12018 0.5,18.12017 6.97318,-7.03126 L 622.44636,593 h 3.10251 c 4.13927,0 7.45113,3.56807 7.45113,8.02757 v 3.39866 L 618.21311,619.21311 603.42623,634 l -3.96312,0.004 -3.96311,0.004 z m -75.36277,4.80962 C 504.04993,623.0704 496.7625,616.11338 489.75,609.00473 L 477,596.07991 v -3.58541 c 0,-3.85796 3.55018,-8.4945 6.50421,-8.4945 2.90072,0 6.92,2.77107 12.99579,8.95987 l 6,6.1116 0.5,-18.62628 0.5,-18.62628 2.36078,-1.90945 C 508.9734,557.3919 514.43631,557.43631 517,560 l 2,2 v 19.22497 19.22497 l 7.25,-7.17183 c 8.16264,-8.07462 11.23382,-9.71843 14.81838,-7.93134 3.1888,1.58979 5.38204,5.72294 4.62857,8.72252 -0.33581,1.33689 -7.52523,9.29321 -15.97649,17.68071 -16.83828,16.71125 -17.71195,17.17846 -23.77618,12.71478 z M 190.78065,623.25 c -0.84113,-0.9625 -2.97462,-6.66099 -4.7411,-12.6633 l -3.21177,-10.91331 1.0521,-2.30911 c 0.57866,-1.27001 2.15049,-2.58478 3.49297,-2.92172 4.6531,-1.16786 6.22067,0.85591 10.0289,12.94752 1.97904,6.28367 3.59825,11.9165 3.59825,12.51739 0,1.93778 -3.93065,5.09253 -6.34501,5.09253 -1.28976,0 -3.03321,-0.7875 -3.87434,-1.75 z m 476.18782,-23.21569 c -4.42201,-1.30045 -7.07958,-3.42743 -9.05163,-7.24447 L 656,589.07968 V 569.03984 549 l -196.75,-0.002 -196.75,-0.002 -3.48007,-1.74844 c -1.91403,-0.96165 -4.52139,-3.30697 -5.79413,-5.21182 l -2.31406,-3.46337 0.29413,-27.21551 0.29413,-27.21552 2.08993,-2.82111 c 1.14947,-1.55162 3.39947,-3.49612 5,-4.32112 l 2.91007,-1.5 101,-0.2352 c 55.55,-0.12936 144.57054,-0.24186 197.82343,-0.25 L 657.14685,475 656.82343,454.25 656.5,433.5 l 2.28985,-3.68251 c 1.57923,-2.5397 3.68421,-4.21502 6.78291,-5.39843 l 4.49306,-1.71591 3.71709,1.11628 3.71709,1.11629 39.5,40.13265 c 21.725,22.07295 39.83061,40.64992 40.23469,41.28214 0.40408,0.63222 0.74158,3.4305 0.75,6.2184 l 0.0153,5.06891 -40.48211,40.38133 c -22.26516,22.20973 -41.05266,40.68049 -41.75,41.04614 -2.44672,1.28294 -6.29205,1.7064 -8.79942,0.96902 z m 168.00268,-22.56907 -1.27374,-1.53477 1.02609,-8.46191 c 0.56435,-4.65405 1.58753,-9.1384 2.27374,-9.96523 1.92103,-2.3147 6.7063,-1.88542 8.43764,0.75694 l 1.48099,2.26027 -0.93783,6.48973 c -0.5158,3.56935 -0.94687,7.02009 -0.95793,7.6683 -0.0643,3.77028 -7.51735,5.83707 -10.04896,2.78667 z M 177.07208,559.07208 c -1.97656,-1.97656 -2.5524,-4.88114 -3.61693,-18.24407 l -0.61117,-7.67199 2.07801,-2.07801 c 2.6749,-2.6749 4.62128,-2.62565 7.43507,0.18814 l 2.26614,2.26614 1.2464,11.48386 1.2464,11.48385 -2.61376,2.25 c -3.2001,2.75473 -4.92283,2.82941 -7.43016,0.32208 z M 840.83442,548.6075 838.5,547.4464 l -0.25426,-8.9732 c -0.3053,-10.77495 0.85747,-13.83215 5.431,-14.27939 2.34813,-0.22963 3.53696,0.27051 4.75399,2 l 1.62286,2.30619 -0.65862,8.5 c -0.36223,4.675 -1.03504,9.23129 -1.49512,10.12509 -1.14544,2.22524 -4.25869,2.87844 -7.06543,1.48241 z m -664.5545,-53.62759 c -3.18099,-1.27998 -3.66386,-4.64702 -2.40502,-16.77038 l 1.11203,-10.70953 2.11732,-1.75 c 2.63187,-2.17529 3.82075,-2.19126 6.8184,-0.0916 l 2.36767,1.65838 -0.63072,12.09162 -0.63072,12.09162 -2.57021,2.25 c -2.83423,2.48114 -2.99143,2.51243 -6.17875,1.22991 z m 663.815,-4.72991 -2.12665,-1.75 -0.95833,-10 c -1.34718,-14.05743 -1.3294,-14.24457 1.53102,-16.1188 l 2.54097,-1.6649 2.40852,1.09739 c 2.98273,1.35903 4.19566,5.58965 5.09955,17.787 l 0.67442,9.1007 -2.35472,1.6493 c -2.98417,2.0902 -4.17371,2.07262 -6.81478,-0.10069 z M 508.37005,465.55961 c -1.72148,-0.74916 -3.52148,-1.96905 -4,-2.71086 -0.47853,-0.74181 -1.09505,-9.64902 -1.37005,-19.7938 l -0.5,-18.44505 -5.5,5.74138 c -3.025,3.15777 -6.97983,6.66796 -8.78852,7.80042 l -3.28852,2.05903 -2.9997,-1.24251 C 478.3504,437.48829 477,435.27412 477,430.89586 v -3.23563 l 13.75,-13.91171 C 504.64154,399.69361 508.07998,397 512.12977,397 c 1.53948,0 7.12355,4.86003 18.04966,15.70931 L 546,428.41863 v 2.85642 c 0,4.09803 -1.50972,6.35839 -5.07756,7.60214 -4.14053,1.4434 -5.74482,0.54528 -14.67244,-8.21391 L 519,423.55006 v 18.64318 c 0,10.25375 -0.27953,19.37163 -0.62118,20.26196 -0.34165,0.89032 -1.8943,2.27713 -3.45034,3.08179 -3.3249,1.71937 -2.66475,1.71709 -6.55843,0.0226 z M 418.45455,455.54545 416,453.09091 v -18.71887 -18.71887 l -7.88516,7.67342 C 402.29291,428.99217 399.53358,431 397.56938,431 393.86603,431 390,426.87856 390,422.93055 v -3.16036 l 14.71361,-14.91965 c 8.09248,-8.20581 15.78783,-15.18927 17.10077,-15.5188 1.31294,-0.32953 3.64253,0.0235 5.17687,0.78456 C 431.39047,392.29832 458,420.53761 458,423.02424 458,425.89614 452.72815,431 449.76172,431 c -1.6543,0 -4.76245,-2.38571 -10.07693,-7.73472 L 432,415.53055 v 17.68767 c 0,18.86121 -0.581,21.81421 -4.65732,23.67151 -3.75088,1.70901 -6.2062,1.33766 -8.88813,-1.34428 z M 594.63486,455.92742 592,453.85484 v -19.10083 -19.10084 l -7.88516,7.67342 C 578.29291,428.99217 575.53358,431 573.56938,431 569.84511,431 566,426.87942 566,422.88833 v -3.20258 L 581.26052,404.34287 596.52105,389 h 2.92549 2.92549 l 15.48065,15.39166 15.48065,15.39166 v 3.2666 c 0,2.31544 -0.79271,3.94847 -2.72243,5.60834 -4.6317,3.98403 -7.14095,3.16653 -15.28832,-4.98084 L 608,416.35484 v 17.37224 17.37224 l -1.46301,2.82916 c -2.38923,4.62026 -7.48225,5.47562 -11.90213,1.99894 z M 185.03896,427.81144 C 183.91753,426.60773 183,424.98738 183,424.21066 c 0,-2.3292 6.11006,-22.6122 7.21792,-23.96066 1.43807,-1.75039 6.33036,-1.55887 8.21065,0.32143 0.86429,0.86428 1.55464,2.55178 1.53413,3.75 -0.0658,3.84552 -5.53637,21.69977 -7.26871,23.72299 -2.19869,2.56789 -5.12871,2.47872 -7.65503,-0.23298 z m 644.52785,-0.13893 c -1.09478,-0.80052 -3.13385,-5.86183 -5.13664,-12.75 L 821.10898,403.5 l 1.46856,-2.25 C 823.55273,399.75591 825.0385,399 827,399 c 3.82278,0 5.175,2.16009 8.42399,13.45677 3.06161,10.6452 3.16477,12.70043 0.74727,14.88824 -2.21084,2.00078 -4.1824,2.09855 -6.60445,0.3275 z M 207.5567,365.77749 C 206.70052,364.55512 206,362.97013 206,362.2553 c 0,-1.59516 7.51968,-16.72295 10.19272,-20.5053 3.21684,-4.55182 10.80728,-2.99362 10.80728,2.21856 0,2.83406 -9.98419,21.95261 -12.03829,23.05193 -2.9774,1.59346 -5.7435,1.12914 -7.40501,-1.243 z m 593.5193,-9.21471 -6.09033,-11.43723 1.15892,-2.54355 c 1.44562,-3.17279 3.85817,-3.9935 7.22707,-2.45852 1.8135,0.82628 4.12003,4.14162 7.61491,10.94543 C 817.66479,364.07004 817.52473,368 810.38316,368 h -3.21684 z m -428.2693,7.57817 c -0.96794,-1.3771 -1.17708,-4.81212 -0.8067,-13.25 l 0.5,-11.39095 32.9361,-0.2639 c 19.98854,-0.16016 33.3119,0.1119 33.89207,0.69207 1.56973,1.56973 1.14806,24.15541 -0.47012,25.18072 -0.74693,0.47327 -15.62003,0.86738 -33.05135,0.8758 L 374.11341,366 Z M 477.57143,364.42857 476,362.85714 v -9.36347 c 0,-5.14991 0.43886,-10.51777 0.97525,-11.92857 L 477.9505,339 h 32.82475 c 24.19703,0 33.14016,0.31541 34.02475,1.2 0.7842,0.7842 1.2,4.91746 1.2,11.92857 v 10.72857 l -1.57143,1.57143 L 542.85714,366 H 511 479.14286 Z M 582.2,364.8 c -0.78919,-0.78919 -1.2,-5 -1.2,-12.3 0,-7.3 0.41081,-11.51081 1.2,-12.3 1.36575,-1.36575 64.38439,-1.75141 66.49937,-0.40696 1.71003,1.08702 1.96741,22.69862 0.29434,24.71454 L 647.75511,366 H 615.57756 C 591.8839,366 583.08361,365.68361 582.2,364.8 Z m -209,-32 c -1.65047,-1.65047 -1.65047,-22.94953 0,-24.6 0.88277,-0.88277 9.56556,-1.2 32.84501,-1.2 h 31.64501 l 1.65499,1.82874 1.65499,1.82874 v 9.737 c 0,5.35535 -0.46583,10.60742 -1.03518,11.67126 L 438.92963,334 h -32.26481 c -23.76153,0 -32.58108,-0.31626 -33.46482,-1.2 z m 103.83518,-0.73426 c -1.40736,-2.62968 -1.31425,-19.35914 0.12534,-22.51869 L 478.32103,307 h 31.90523 c 20.08073,0 32.62208,0.38365 33.83948,1.03518 L 546,309.07037 v 11.26481 c 0,7.42819 -0.4087,11.67352 -1.2,12.46482 -0.8845,0.8845 -9.8144,1.2 -33.96482,1.2 H 478.07037 Z M 582.2,332.8 c -0.7913,-0.7913 -1.2,-5.03663 -1.2,-12.46482 v -11.26481 l 1.93426,-1.03519 c 2.53144,-1.35478 62.49779,-1.40951 65.02061,-0.0593 l 1.82338,0.97584 0.72113,11.03884 c 0.53456,8.18293 0.40221,11.42312 -0.51157,12.52416 L 648.75511,334 h -32.67755 c -24.08255,0 -32.99319,-0.31563 -33.87756,-1.2 z m -340,-22 c -2.28285,-2.28285 -1.38015,-7.5164 1.98617,-11.5152 10.7949,-12.82309 14.65447,-15.3013 18.2424,-11.71337 2.95696,2.95696 1.85008,6.41101 -4.59576,14.3412 -3.39195,4.17305 -6.85296,8.14987 -7.69113,8.83737 -1.93551,1.58759 -6.37613,1.61555 -7.94168,0.05 z m 130.88977,-9.19183 c -0.76835,-0.92581 -1.06047,-5.3622 -0.87244,-13.25 L 372.5,276.5 l 33,-0.26511 33,-0.26511 1.25,1.70624 c 0.80749,1.10221 1.25,5.33039 1.25,11.94368 v 10.23744 l -1.57143,1.57143 L 437.85714,303 H 406.05102 374.24489 Z M 477.65499,301.17126 476,299.34252 V 289.17126 279 l 2.02345,-2.02345 2.02344,-2.02344 31.72656,0.65838 c 18.29797,0.37971 32.25562,1.07635 32.97655,1.64589 0.86849,0.68611 1.25,4.44932 1.25,12.32988 v 11.34237 l -1.93426,1.03519 C 542.85017,302.61537 530.46061,303 510.72073,303 H 479.30998 Z M 582.2,301.8 c -0.78919,-0.78919 -1.2,-5 -1.2,-12.3 0,-7.3 0.41081,-11.51081 1.2,-12.3 0.8845,-0.8845 9.8144,-1.2 33.96482,-1.2 h 32.76481 l 1.03519,1.93426 C 650.53417,278.9981 651,284.36596 651,289.86283 v 9.99431 l -1.57143,1.57143 L 647.85714,303 h -32.22857 c -23.73333,0 -32.54488,-0.31631 -33.42857,-1.2 z m 160.19388,-23.9617 c -4.59896,-4.48894 -8.6313,-9.01097 -8.96074,-10.04896 C 732.50112,264.8528 735.57261,261 738.84567,261 h 2.79957 l 8.17738,8.37781 c 8.54718,8.75669 9.87493,11.78178 6.60595,15.05076 -2.94099,2.94099 -5.50174,1.73854 -14.03469,-6.59027 z m -457.17137,-12.395 c -2.46192,-1.7244 -2.93392,-5.97325 -0.94071,-8.46806 C 287.55566,252.87752 301.0432,243 303.36468,243 c 2.62908,0 5.63532,3.21122 5.63532,6.01956 0,1.76134 -4.63596,6.41697 -13.28891,13.34531 -6.37256,5.10245 -7.23676,5.35609 -10.48858,3.07843 z M 694.81471,238.75 685.5,232.5 l -0.29852,-3.0511 c -0.37761,-3.85937 2.6746,-6.9478 6.03323,-6.10484 1.27342,0.31961 6.23803,3.31808 11.03248,6.66327 9.50344,6.63077 11.34304,9.55591 8.19634,13.03296 -2.84646,3.14531 -5.75594,2.34765 -15.64882,-4.29029 z m -359.5922,-10.3067 c -2.71013,-1.89825 -2.95807,-6.46977 -0.47251,-8.71203 3.00692,-2.71258 18.63882,-10.69702 20.97695,-10.71456 2.90298,-0.0218 5.68973,4.18696 4.88784,7.38195 -0.44561,1.77547 -3.25247,3.89162 -10.6208,8.00729 C 344.48568,227.48268 339.40876,230 338.71194,230 c -0.69681,0 -2.26706,-0.70052 -3.48943,-1.5567 z m 307.26086,-19.10931 c -6.03105,-2.47288 -11.30017,-5.02215 -11.70915,-5.66506 -1.38912,-2.18369 -0.78144,-6.35242 1.18549,-8.13246 2.46545,-2.23121 4.44877,-1.76276 16.62267,3.92613 l 9.33564,4.36257 0.65266,2.6004 c 0.67309,2.68182 -0.54866,4.95709 -3.51398,6.54408 -1.10114,0.58932 -5.06326,-0.55636 -12.57333,-3.63566 z m -251.91194,-7.90542 c -2.09316,-2.09315 -1.997,-6.74773 0.17857,-8.64366 2.81811,-2.45589 20.99427,-8.06591 23.82842,-7.35458 3.31858,0.83291 5.11176,4.75947 3.64434,7.9801 l -1.09826,2.41044 -11.12023,3.58956 c -12.65727,4.08573 -13.28338,4.1676 -15.43284,2.01814 z M 584.5,190.30333 c -13.15334,-3.2585 -15.74081,-5.65912 -11.9433,-11.08082 1.10827,-1.58228 2.57263,-2.22251 5.08339,-2.22251 4.99142,0 19.52253,3.85637 21.60991,5.73499 2.48571,2.23712 2.23759,6.81008 -0.47251,8.70831 -2.66518,1.86676 -1.89096,1.92858 -14.27749,-1.13997 z m -133.77298,-5.05247 c -2.28355,-2.5233 -2.19263,-6.51951 0.19755,-8.6826 2.34464,-2.12187 21.188,-4.85616 24.57964,-3.56666 3.7456,1.42408 4.73209,6.62176 1.74579,9.1983 -0.9625,0.83043 -5.78146,2.05521 -10.70881,2.72175 -4.92734,0.66653 -10.11268,1.44265 -11.52297,1.72471 -1.73675,0.34735 -3.12147,-0.10296 -4.2912,-1.3955 z m 61.70061,-5.55945 c -2.87085,-2.4694 -2.80168,-5.17451 0.20931,-8.18549 L 514.14286,170 l 9.67857,0.0997 c 11.79421,0.12147 14.2302,0.73812 16.10405,4.07663 l 1.45554,2.59323 -1.71356,2.61523 L 537.95389,182 h -11.42118 -11.42118 z"
       id="path1" />
  </g>
</svg>
