<?xml version="1.0" encoding="UTF-8" standalone="no"?>
<!-- Created with Inkscape (http://www.inkscape.org/) -->

<svg
   version="1.1"
   id="svg1"
   width="1496"
   height="1496"
   viewBox="0 0 1496 1496"
   xmlns="http://www.w3.org/2000/svg"
   xmlns:svg="http://www.w3.org/2000/svg">
  <defs
     id="defs1" />
  <g
     id="g1">
    <path
       style="fill:#000000"
       d="m 759.39439,1093.423 c -15.7869,-0.7393 -31.6634,-6.537 -44.6684,-16.3118 -6.3177,-4.7485 -11.9814,-10.4704 -16.6959,-16.8674 l -2.047,-2.7777 -79.0853,-0.16 c -76.5912,-0.155 -79.1236,-0.179 -80.2964,-0.7617 -2.3339,-1.1596 -2.149,2.7674 -2.149,-45.6383 0,-48.40556 -0.1849,-44.47866 2.149,-45.63816 1.1742,-0.5835 3.632,-0.6043 80.768,-0.6855 l 79.557,-0.084 2.3479,-3.1163 c 3.0735,-4.0793 10.8216,-11.8031 14.8581,-14.8114 1.76,-1.3116 3.3062,-2.5288 3.436,-2.7048 0.1298,-0.176 0.2018,-14.936 0.16,-32.8 l -0.076,-32.48 -136.16,-0.16 -136.16,-0.16 -1.8063,-0.7304 c -4.6593,-1.884 -8.1323,-5.6493 -9.6447,-10.4563 l -0.709,-2.2534 v -86.24 -86.24 l 0.7398,-2.1409 c 1.7101,-4.9494 5.0632,-8.4428 9.9907,-10.4087 1.3612,-0.5431 7.9345,-0.578 137.5895,-0.7304 l 136.16,-0.16 0.083,-14.8 0.083,-14.8 h -134.4832 c -90.6746,0 -135.1607,-0.1097 -136.5632,-0.3319 -6.762,-1.0713 -12.4625,-6.8391 -13.427,-13.5856 -0.4459,-3.1187 -0.4475,-169.18448 0,-171.93173 0.4786,-2.94952 1.4604,-5.30147 3.1429,-7.52934 1.7563,-2.32551 4.9796,-4.6605 7.6374,-5.5325 1.8099,-0.59412 8.91,-0.60686 337.8487,-0.60686 328.93881,0 336.03891,0.0127 337.84851,0.60644 2.6577,0.872 5.8811,3.20699 7.6374,5.5325 1.6825,2.22787 2.6643,4.57982 3.1429,7.52934 0.4458,2.74725 0.4442,168.81305 0,171.93165 -0.9646,6.7466 -6.6651,12.5144 -13.4271,13.5857 -1.4053,0.2226 -51.4655,0.3303 -154.32011,0.3319 h -152.24 v 14.88 14.88 h 153.4063 c 152.12221,0 153.42361,0.01 155.46321,0.6353 4.9737,1.5362 8.7536,5.3055 10.5596,10.53 l 0.731,2.1147 v 86.4 86.4 l -0.731,2.1148 c -1.806,5.2245 -5.5859,8.9937 -10.5596,10.5299 -2.0396,0.63 -3.341,0.6353 -155.46321,0.6353 h -153.4079 v 32.7666 32.7666 l 2.6383,1.9682 c 5.93,4.4237 11.781,10.2462 16.206,16.1271 l 1.7243,2.2915 71.0757,0.16 c 65.4412,0.1473 71.1689,0.2023 72.2508,0.6933 2.396,1.0873 2.2057,-2.8549 2.2057,45.70666 0,48.5617 0.1903,44.6194 -2.2057,45.7067 -1.083,0.4915 -6.7047,0.5416 -71.7351,0.6396 l -70.56,0.1062 -2.6691,3.627 c -9.9784,13.5593 -25.498,24.3728 -41.9709,29.2438 -9.0197,2.6671 -17.9082,3.6745 -28.178,3.1936 z m 13.458,-8.4403 c 0.616,-0.1019 2.416,-0.3988 4,-0.6597 27.5246,-4.5341 50.6316,-25.4423 58.3733,-52.8183 1.8857,-6.6679 2.7405,-13.217 2.6887,-20.5986 -0.1513,-21.56596 -9.9488,-42.23226 -26.5863,-56.07976 -14.9709,-12.4602 -34.2502,-18.4566 -54.0064,-16.7974 -11.3087,0.9498 -23.9423,5.3707 -33.5687,11.7469 -18.677,12.371 -30.1321,30.866 -33.006,53.29026 -0.643,5.0168 -0.4769,14.4395 0.3469,19.68 2.5501,16.2231 10.0154,30.5351 21.9572,42.0952 3.9615,3.8348 6.2978,5.696 11.0013,8.7642 9.071,5.9172 20.201,9.9545 31.3721,11.3797 3.4274,0.4373 14.7786,0.4357 17.4279,0 z m -15.9657,-8.8209 c -26.5978,-2.9927 -48.9564,-22.3873 -55.5787,-48.2112 -5.7883,-22.5713 0.6591,-46.06266 17.1566,-62.51046 14.4559,-14.4124 35.1238,-21.119 55.5078,-18.0118 25.7592,3.9264 46.7705,23.084 53.1247,48.4378 1.8508,7.38476 2.3579,17.31106 1.274,24.93836 -2.7212,19.1484 -14.1923,36.4162 -30.8787,46.4825 -6.866,4.1421 -14.7977,7.0452 -23.04,8.4328 -3.6437,0.6135 -13.7755,0.8684 -17.5657,0.442 z M 1093.1576,848.34614 c 1.6644,-0.9343 3.3698,-3.0341 3.8403,-4.728 0.4295,-1.5463 0.4295,-10.7576 0,-12.3039 -0.4705,-1.694 -2.1759,-3.7937 -3.8403,-4.7281 l -1.4251,-0.8 h -128.64011 -128.64 l -1.4887,0.8752 c -1.8932,1.1129 -3.3447,3.0828 -3.8101,5.1706 -0.2191,0.9827 -0.3186,3.6117 -0.2496,6.5942 0.1291,5.5806 0.4136,6.5452 2.5642,8.6958 2.337,2.337 -9.6872,2.1477 132.2642,2.0828 l 128.00011,-0.059 z m -1.7687,-54.0666 c 1.7966,-0.4167 3.6961,-1.8669 4.816,-3.677 l 0.9676,-1.5638 0.1066,-5.7506 c 0.089,-4.8275 0.019,-5.98 -0.4394,-7.1799 -0.6919,-1.8117 -2.1186,-3.4428 -3.7969,-4.3409 l -1.3103,-0.7012 -127.96001,-0.082 c -87.2083,-0.056 -128.3506,0.024 -129.1866,0.2487 -1.8056,0.4862 -3.8259,2.1799 -4.756,3.9872 -0.79,1.5353 -0.8175,1.7874 -0.8175,7.5171 v 5.9285 l 0.9932,1.76 c 1.0757,1.9061 2.9229,3.4325 4.6463,3.8394 1.5323,0.3618 255.17781,0.3756 256.73701,0.014 z m -574.69651,-22.5596 c 11.5795,-3.3742 20.0505,-12.1722 22.9674,-23.8538 0.5401,-2.1629 0.6798,-3.7031 0.6823,-7.52 0,-4.229 -0.099,-5.1724 -0.8585,-7.9307 -4.3094,-15.6575 -18.6557,-25.7196 -34.4701,-24.1764 -17.1146,1.67 -29.8944,16.3186 -29.2674,33.5471 0.5436,14.9346 11.5973,27.7609 26.3381,30.5616 3.8935,0.7398 10.9569,0.4362 14.6082,-0.6278 z m 576.54931,-32.9009 c 0.83,-0.4879 1.8712,-1.3618 2.3137,-1.942 1.5065,-1.9751 1.7777,-3.374 1.7701,-9.1311 -0.01,-4.6579 -0.088,-5.4989 -0.6589,-6.7598 -0.8037,-1.7754 -1.9784,-3.0451 -3.6541,-3.9493 l -1.28,-0.6907 -127.96001,-0.082 c -87.2083,-0.056 -128.3506,0.024 -129.1866,0.2487 -1.8038,0.4858 -3.8258,2.1801 -4.756,3.9853 -0.7658,1.4862 -0.8239,1.9275 -0.9189,6.9868 -0.1191,6.3428 0.2247,7.7827 2.3916,10.0142 2.4788,2.5526 -10.4821,2.3309 132.4298,2.2653 l 128.00011,-0.059 z m -1.2874,-119.3292 c 1.7936,-0.5374 3.8813,-2.5027 4.7135,-4.4372 0.6533,-1.5186 0.6973,-2.0495 0.6046,-7.3026 -0.094,-5.3458 -0.1459,-5.7542 -0.9174,-7.2514 -1.0238,-1.9871 -2.9828,-3.508 -5.1045,-3.963 -2.2291,-0.4781 -254.23541,-0.4819 -256.30991,0 -1.9317,0.4451 -3.9442,2.0349 -5.0313,3.9744 -0.8671,1.5469 -0.9004,1.778 -1.0038,6.9564 -0.085,4.2611 0,5.6701 0.4025,6.8902 0.6992,2.1048 2.2291,3.8517 4.1618,4.7516 l 1.6226,0.7556 h 127.8029 c 97.03661,0 128.10531,-0.087 129.05901,-0.3732 z m 0.7405,-55.096 c 1.9055,-0.8874 3.3952,-2.4866 4.1449,-4.4497 0.4581,-1.1993 0.5288,-2.3507 0.4394,-7.1536 -0.1045,-5.6122 -0.1243,-5.7544 -1.008,-7.2578 -1.1359,-1.9325 -2.9917,-3.2896 -5.1222,-3.746 -1.2011,-0.2573 -36.6614,-0.3281 -129.01651,-0.2576 l -127.36,0.097 -1.596,0.84 c -1.7534,0.9228 -3.4459,3.0513 -3.9932,5.0218 -0.5299,1.908 -0.4182,10.5676 0.1582,12.2591 0.6883,2.02 2.2322,3.7543 4.1284,4.6372 l 1.6226,0.7556 h 128 128.00011 z m -578.44231,-21.5306 c 12.234,-2.1577 22.2024,-11.7111 25.396,-24.3388 0.9952,-3.9349 1.0014,-10.87274 0.013,-14.81823 -2.9862,-11.92378 -11.694,-20.76443 -23.7132,-24.07489 -2.0543,-0.56582 -3.3462,-0.6765 -7.8961,-0.6765 -5.9803,0 -7.9901,0.3696 -12.7223,2.33964 -5.0738,2.11222 -10.8791,6.88392 -13.9835,11.49372 -4.7424,7.04229 -6.6225,15.83054 -5.1381,24.01696 2.5902,14.2836 14.6357,25.3353 28.9639,26.574 3.0367,0.2626 5.4407,0.126 9.08,-0.5159 z m 577.47961,-32.7903 c 1.8639,-0.46935 3.9129,-2.27629 4.8408,-4.26894 0.6952,-1.49296 0.7536,-2.02697 0.7565,-6.92079 0,-6.29692 -0.3434,-7.70033 -2.4173,-9.77421 -2.5975,-2.59752 10.498,-2.36279 -131.81971,-2.36279 -141.4705,0 -129.2366,-0.20338 -131.6282,2.18825 -2.1773,2.17731 -2.4352,3.08222 -2.5586,8.97908 -0.073,3.50215 0.021,5.71561 0.2844,6.65532 0.4553,1.62619 1.8489,3.67785 3.019,4.44452 2.2182,1.45341 -4.2739,1.38391 130.6617,1.39878 91.95741,0.0101 127.84921,-0.0843 128.86141,-0.33922 z"
       id="path1" />
  </g>
</svg>
